<?xml version="1.0" encoding="utf-8"?>
<!-- Generator: Adobe Illustrator 27.0.1, SVG Export Plug-In . SVG Version: 6.00 Build 0)  -->
<svg version="1.1" id="Layer_1" xmlns="http://www.w3.org/2000/svg"
    xmlns:xlink="http://www.w3.org/1999/xlink" x="0px" y="0px"
    viewBox="0 0 512 512" style="enable-background:new 0 0 512 512;" xml:space="preserve">
<path class="st0" d="M464.9,115.6l-153.1-73C278,22.5,236.1,22.2,202,41.7L47.1,115.6c-0.6,0.3-1.2,0.6-1.7,0.9
	c-36.8,21-49.5,67.8-28.5,104.6c7.1,12.5,17.6,22.7,30.2,29.5L89.9,271v101.8c0,45.5,29.6,85.7,73.1,99.2
	c30.2,8.7,61.6,13,93.1,12.7c31.5,0.4,62.8-3.9,93.1-12.6c43.4-13.5,73.1-53.7,73.1-99.2V270.9l41.5-19.9v171.3
	c0,11.5,9.3,20.8,20.8,20.8c11.5,0,20.8-9.3,20.8-20.8V173.1C505.4,148.8,486.1,126.2,464.9,115.6z M380.6,372.8
	c0,27.2-17.6,51.3-43.6,59.5c-26.3,7.5-53.6,11.2-81,10.8c-27.4,0.3-54.7-3.3-81-10.8c-26-8.2-43.6-32.2-43.6-59.5v-82.1l68.9,32.8
	c17,10.1,36.4,15.4,56.2,15.3c18.8,0.1,37.3-4.8,53.5-14.4l70.6-33.7V372.8z M447.1,213.1l-156.6,74.8
	c-21.8,12.7-48.9,12.4-70.4-0.9L66.8,214.1c-17.1-9.2-23.5-30.5-14.3-47.6c3.1-5.8,7.8-10.6,13.5-13.8l155.7-74.4
	c21.8-12.7,48.9-12.3,70.4,0.9l153.1,73c11.3,6.3,18.3,18.1,18.5,30.9C463.7,195.3,457.4,206.7,447.1,213.1L447.1,213.1z"/>
</svg>
