<?xml version="1.0" encoding="utf-8"?>
<!-- Generator: Adobe Illustrator 27.0.1, SVG Export Plug-In . SVG Version: 6.00 Build 0)  -->
<svg version="1.1" id="Layer_1" xmlns="http://www.w3.org/2000/svg"
    xmlns:xlink="http://www.w3.org/1999/xlink" x="0px" y="0px"
    viewBox="0 0 512 512" style="enable-background:new 0 0 512 512;" xml:space="preserve">
<path class="st0" d="M164,276.5c-50.8,0-92-41.2-92-92s41.2-92,92-92s92,41.2,92,92C255.9,235.2,214.8,276.4,164,276.5z M164,133.3
	c-28.2,0-51.1,22.9-51.1,51.1s22.9,51.1,51.1,51.1s51.1-22.9,51.1-51.1S192.2,133.3,164,133.3z M317.4,481v-10.2
	c0-84.7-68.7-153.4-153.4-153.4S10.5,386.1,10.5,470.8V481c0,11.3,9.2,20.5,20.5,20.5s20.5-9.2,20.5-20.5v-10.2
	c0-62.1,50.4-112.5,112.5-112.5s112.5,50.4,112.5,112.5V481c0,11.3,9.2,20.5,20.5,20.5C308.2,501.5,317.4,492.3,317.4,481z
	 M501.5,378.7c0-79.1-64.1-143.2-143.2-143.2c-35.2,0-69.2,13-95.5,36.5c-8.5,7.5-9.3,20.4-1.9,28.9s20.4,9.3,28.9,1.9
	c0.1-0.1,0.2-0.2,0.3-0.3c42.1-37.7,106.8-34,144.4,8.1c16.8,18.8,26,43,26,68.2c0,11.3,9.2,20.5,20.5,20.5S501.5,390,501.5,378.7z
	 M368.5,194.6c-50.8,0-92-41.2-92-92s41.2-92,92-92s92,41.2,92,92C460.5,153.4,419.3,194.6,368.5,194.6z M368.5,51.4
	c-28.2,0-51.1,22.9-51.1,51.1s22.9,51.1,51.1,51.1s51.1-22.9,51.1-51.1S396.7,51.4,368.5,51.4z"/>
</svg>
