<?xml version="1.0" encoding="utf-8"?>
<!-- Generator: Adobe Illustrator 27.0.1, SVG Export Plug-In . SVG Version: 6.00 Build 0)  -->
<svg version="1.1" id="Layer_1" xmlns="http://www.w3.org/2000/svg"
    xmlns:xlink="http://www.w3.org/1999/xlink" x="0px" y="0px"
    viewBox="0 0 512 512" style="enable-background:new 0 0 512 512;" xml:space="preserve">
<path class="st0" d="M371.1,35.2c-48,0.7-91.9,27.1-115.1,69.1c-23.2-42-67.1-68.3-115.1-69.1c-78.2,3.4-139,69.3-136,147.6
	C4.8,278,105,381.9,189,452.4c38.7,32.5,95.2,32.5,134,0c84-70.5,184.2-174.4,184.2-269.6C510.1,104.6,449.3,38.6,371.1,35.2z
	 M296.1,420.3c-23.2,19.5-57,19.5-80.2,0C108.4,330.1,46.7,243.5,46.7,182.8c-3-55.1,39.1-102.3,94.2-105.7
	c55.1,3.4,97.2,50.6,94.2,105.7c0,11.6,9.4,20.9,20.9,20.9c11.6,0,20.9-9.4,20.9-20.9c-3-55.1,39.1-102.3,94.2-105.7
	c55.1,3.4,97.2,50.6,94.2,105.7C465.3,243.5,403.6,330.1,296.1,420.3L296.1,420.3z"/>
</svg>
