<?xml version="1.0" encoding="utf-8"?>
<!-- Generator: Adobe Illustrator 27.0.1, SVG Export Plug-In . SVG Version: 6.00 Build 0)  -->
<svg version="1.1" id="Layer_1" xmlns="http://www.w3.org/2000/svg"
    xmlns:xlink="http://www.w3.org/1999/xlink" x="0px" y="0px"
    viewBox="0 0 512 512" style="enable-background:new 0 0 512 512;" xml:space="preserve">
<path class="st0" d="M359.9,503.5c-79.7,0-144.4-64.6-144.4-144.4s64.6-144.4,144.4-144.4s144.4,64.6,144.4,144.4
	C504.2,438.8,439.6,503.4,359.9,503.5z M359.9,256c-57,0-103.1,46.2-103.1,103.1S303,462.2,359.9,462.2s103.1-46.2,103.1-103.1
	C463,302.2,416.9,256.1,359.9,256z M395.1,394.3c8.1-8.1,8.1-21.1,0-29.2l-14.6-14.6v-32.7c0-11.4-9.2-20.6-20.6-20.6
	c-11.4,0-20.6,9.2-20.6,20.6v41.2c0,5.5,2.2,10.7,6,14.6l20.6,20.6C374,402.4,387.1,402.4,395.1,394.3L395.1,394.3z M50.6,482.9
	c0.1-77.9,52.8-146,128.3-165.5c11.1-2.5,18.1-13.6,15.6-24.7c-2.5-11.1-13.6-18.1-24.7-15.6C75.1,300.3,8.8,385.4,9.3,482.9
	c0,11.4,9.2,20.6,20.6,20.6S50.6,494.3,50.6,482.9L50.6,482.9z M184.1,235.4c-62.6,0-113.4-50.8-113.4-113.4S121.4,8.5,184.1,8.5
	s113.4,50.8,113.4,113.4C297.5,184.6,246.7,235.3,184.1,235.4z M184.1,49.8c-39.9,0-72.2,32.3-72.2,72.2s32.3,72.2,72.2,72.2
	s72.2-32.3,72.2-72.2S224,49.8,184.1,49.8z"/>
</svg>
