<?xml version="1.0" encoding="utf-8"?>
<!-- Generator: Adobe Illustrator 27.0.1, SVG Export Plug-In . SVG Version: 6.00 Build 0)  -->
<svg version="1.1" id="katman_1" xmlns="http://www.w3.org/2000/svg" xmlns:xlink="http://www.w3.org/1999/xlink" x="0px" y="0px"
	 viewBox="0 0 324.9 304.3" style="enable-background:new 0 0 324.9 304.3;" xml:space="preserve">
<style type="text/css">
	.st0{fill:#FFFFFF;filter:url(#Adobe_OpacityMaskFilter);}
	.st1{mask:url(#mask0_0_18_00000149373251912330085710000001504405805922809256_);}
	.st2{fill-rule:evenodd;clip-rule:evenodd;fill:#FFFFFF;}
	.st3{fill:#63C2E9;}
	.st4{fill-rule:evenodd;clip-rule:evenodd;fill:#CFF0FF;}
	.st5{fill-rule:evenodd;clip-rule:evenodd;fill:#E9F3FD;}
	.st6{fill:#063573;}
	.st7{fill-rule:evenodd;clip-rule:evenodd;fill:#063573;}
</style>
<defs>
	<filter id="Adobe_OpacityMaskFilter" filterUnits="userSpaceOnUse" x="7.9" y="22.8" width="314.1" height="294.2">
		<feColorMatrix  type="matrix" values="1 0 0 0 0  0 1 0 0 0  0 0 1 0 0  0 0 0 1 0"/>
	</filter>
</defs>
<mask maskUnits="userSpaceOnUse" x="7.9" y="22.8" width="314.1" height="294.2" id="mask0_0_18_00000149373251912330085710000001504405805922809256_">
	<rect x="-31.6" y="14" class="st0" width="359.1" height="248.7"/>
</mask>
<g class="st1">
	<g>
		<path class="st2" d="M71.4,76.5l6.3,25.2c0,0,4.9,33.2,22.4,39.5l-0.3,13.3l-59.8,25.9c0,0-24.5,28.3-30.8,64l17.8,8L15.8,308
			h262.6c0,0,7-13.6,5.6-21.7c-1.4-8-5.2-69.9-5.2-69.9s5.2-7.7,5.2-16.1v-5.9l2.1-2.8l-2.1-6.6c0,0-4.9-7.7-17.5-2.4l-0.7-1.7
			c0,0,1.7-14,0.7-17.1c-1-3.1-4.9-6.3-4.9-6.3l-0.3,10.8l-1,15c0,0-2.1,7-1.7,11.9c0.4,4.9,3.5,17.1,6.3,20.6l0.3,1.7l-14.3-8
			c0,0,5.2-13.6,3.5-21.7c-1.7-8-10.8-38.1-11.5-48.6c-0.7-10.5,0-11.5,0-11.5s3.8-5.2,2.4-13.3c-1.4-8-10.8-27.3-36-31.5
			c-25.2-4.2-30.8,9.1-30.8,9.1l-3.5,11.5c0,0-8,2.8-11.9,7.7c-3.8,4.9-9.1,11.2-7.3,25.2c1.7,14,0,24.8,0,24.8l-12.6-7l-4.2-2.8
			c0,0-8.4-21.3-0.7-35.3c0,0,1.4,3.1,5.6,2.4c4.2-0.7,8.7-2.1,6.6-6.6c0,0,3.8-1,5.2-3.8c1.4-2.8-1.4-6.3-1.4-6.3s4.9,1.4,8.7-2.4
			c3.8-3.8,2.1-10.1-1-13.3l3.8-3.1L141.7,66l-31.8-11.9l-34.6,9.1L71.4,76.5z"/>
	</g>
	<g>
		<path class="st3" d="M23.4,143.1c-3.2,0-5.9-1.5-6.3-1.7c-4.2-2.5-5.5-6.8-5.8-8c-0.1-0.6,0.2-1.2,0.8-1.3
			c0.6-0.1,1.2,0.2,1.3,0.8c0.2,1,1.3,4.6,4.7,6.6c0.5,0.3,5.2,2.9,9,0.4c0.5-0.3,0.9-0.7,1.3-1.1c-0.9-0.7-1.7-1.6-2.2-2.5
			c-1.2-2.1-2.2-5.8-0.1-7.6c1.5-1.4,4.4-1.2,5.8,0.2c1,1,1.4,2.6,1.2,4.7c-0.1,1.4-0.7,3.1-1.6,4.7c1.3,0.7,3,1.1,4.9,1.3
			c9.6,1.1,17.7-9.2,18.6-10.4c0.4-0.5,1-0.6,1.5-0.2c0.5,0.4,0.6,1,0.2,1.5c-1.6,2.1-10,12.5-20.6,11.3c-2.3-0.3-4.2-0.8-5.9-1.7
			c-0.6,0.6-1.2,1.2-2,1.7C26.7,142.8,25,143.1,23.4,143.1z M28.9,129.8c-0.5,0-1,0.1-1.3,0.4c-0.9,0.8-0.4,3.3,0.6,5
			c0.4,0.7,0.9,1.3,1.6,1.9c0.7-1.3,1.2-2.6,1.3-3.8c0.1-1.3-0.1-2.4-0.6-2.9C30.1,130,29.5,129.8,28.9,129.8z"/>
	</g>
	<g>
		<path class="st3" d="M300.5,242.1c-1.6,0-2.9-0.5-3.6-1.4c-1.3-1.8,0.1-5,2.4-8.1c-0.6-0.3-1.2-0.5-1.9-0.5
			c-1.7-0.1-3.2,0.8-4.2,1.5c-0.5,0.4-1.1,0.3-1.5-0.2c-0.4-0.5-0.3-1.1,0.2-1.5c1.2-1,3.2-2.1,5.6-2c1.1,0.1,2.2,0.4,3.1,0.9
			c1.6-1.9,3.5-3.7,5.3-4.9c4.2-3,9.3-4.8,14.9-5.1c0.6,0,1.1,0.4,1.1,1c0,0.6-0.4,1.1-1,1.1c-5.2,0.3-9.9,1.9-13.8,4.7
			c-1.8,1.3-3.4,2.9-4.8,4.4c1,0.9,1.8,1.9,2.3,2.8c1.1,1.9,1.3,3.7,0.7,4.9c-0.8,1.5-2.7,2.1-4.3,2.3
			C300.9,242.1,300.7,242.1,300.5,242.1z M301.1,233.7c-1.9,2.6-2.9,4.9-2.4,5.7c0.2,0.3,1.1,0.6,2.2,0.5c1.2-0.1,2.3-0.6,2.6-1.1
			c0.2-0.4,0.1-1.5-0.6-2.9C302.4,235.2,301.8,234.4,301.1,233.7z"/>
	</g>
	<g>
		<path class="st4" d="M90.3,63.2c-0.9,0.4-2.8,1.2-4.4,3c-2.1,2.4-2.5,5-2.6,5.9c-2.5-0.7-5,0.5-5.6,2.3c-0.6,1.7,0.5,3.4,0.7,3.6
			c0.2,2,0.4,4,0.7,5.9c-0.6,1.1-1.3,2.8-1.7,5c-0.4,2.6,0,4.7,0.3,5.9c-1.8,1.6-4.4,1.7-5.9,0.3c-1.2-1-1.7-2.7-1.3-4.3
			c-1.4-1.1-2.1-2.9-1.7-4.6c0.5-2.1,2.4-2.9,2.6-3c-2.3,0.7-4.7,0.2-6.3-1.3c-1.5-1.5-1.6-3.4-1.7-4c-4.8-2.4-5.5-5.3-5.6-5.9
			c-0.9-4.8,4.9-11.6,15.5-14.2c-3.7-2.3-5.8-6.2-5.3-9.9c0.1-0.7,0.5-4.2,3.6-5.9c2.9-1.6,5.8-0.5,6.3-0.3c0.2-0.5,0.8-2.4,2.6-3.6
			c2.2-1.5,4.5-1.1,5-1c0.1-2,1-3,1.3-3.3c2-1.9,6.2-1.8,9.9,1c-0.3-0.6-1-2.5-0.3-4.6c0.2-0.6,0.5-1.6,1.3-2
			c1.3-0.7,3.5,0.2,5.3,2.3c0.2-0.5,0.9-2,2.6-3c0.2-0.1,2.4-1.3,4.6-0.3c0,0,0.7,0.3,3.3,3c0.8-0.1,2.8-0.4,5,0.7
			c3.2,1.6,4.2,4.8,4.3,5.3c1.3,0.1,3.3,0.4,5.6,0.7c5.1,0.7,7.7,1,8.6,1.3c6.1,2.3,8.5,10,8.9,11.6c1.6,5.3,0.6,10,0,12.2
			c0.7,0,4,0,6.3,2.3c2.7,2.7,2.9,7.6,0.3,11.6c0.5,0,3.2,0,5,2c1.9,2.2,1.9,6-0.3,8.9c0.9,0.5,3.3,2,3.6,4.3
			c0.4,3.2-3.2,7.3-9.4,8.3c0.1-0.5,0.4-2.4-0.7-4.2c-1.6-2.6-4.6-2.8-4.9-2.8c0.9-0.6,2.3-1.6,3.5-3.1c1.4-1.9,3.2-5.3,2.1-6.6
			c-0.7-0.8-2-0.5-2.8-1.7c-0.2-0.4-0.2-0.5-0.4-1.1c-0.5-1.3-1.6-2.3-2.4-2.8c-1-0.5-2.1-0.5-4.1-0.1c-3.8,0.7-4.7,1.5-7.8,2.2
			c-3.3,0.8-5.2,1.2-6.8,0.1c-1.4-0.9-1.3-2.2-2.6-2.6c-1.5-0.4-2.3,0.8-4.3,1c-2.1,0.2-3.8-1.1-4.6-1.7c-3.3-2.4-3.8-6.3-4-7.6
			c-0.3-2.5,0.1-4.6,0.6-6c-5.5,2.1-7.5,4.3-8.2,6c-0.3,0.7-1.1,3.1-3,3.6c-0.6,0.2-1,0-1.3,0.3c-0.5,0.5-0.4,1.9,1.7,5.6
			c-0.7,0.1-2.6,0.3-4.5-0.9c-2.1-1.3-3.3-3.9-3.1-6.6c-0.6-0.6-1.4-1.6-2.1-2.8C90.8,65.8,90.4,64.3,90.3,63.2z"/>
	</g>
	<g>
		<path class="st4" d="M144.5,112.2c-1,0.9-2,1.6-2.8,2.1c1.2,1.3,3.1,1.5,4.5,0.7c1.3-0.8,2-2.3,1.7-3.8c0.9-0.1,2.4-0.5,3.5-1.7
			c1.9-2.1,2-5.8,0-9.1c-0.2,0.7-1.7,6.2-4.5,9.4C145.8,111,144.5,112.2,144.5,112.2z"/>
	</g>
	<g>
		<path class="st5" d="M52.2,224.5c1,6.7,1.9,13.9,2.4,21.7c0.5,6.8,0.7,13.2,0.7,19.2c8.8,3.5,21.6,7.5,37.4,8.7
			c14.7,1.2,27.1-0.3,36-2.1c0.2-1.2,0.5-3.2,1-5.6c1.9-8.5,3.6-10.9,5.9-19.9c1.4-5.4,1-5.4,2.1-8.7c1.8-5.3,4.2-9.3,5.9-11.9
			c-9.1,0.9-18.7,1.5-28.7,1.7C92,228.2,70.9,226.8,52.2,224.5z"/>
	</g>
	<g>
		<path class="st5" d="M43.4,213.6c-0.3,4.4-0.2,11.6,2.4,19.9c2.4,7.6,6.1,13.1,8.7,16.4c-0.5-6.9-0.9-13.8-1.4-20.6
			c-1.2-1.2-2.3-2.6-3.5-4.2C46.7,221,44.7,217,43.4,213.6z"/>
	</g>
	<g>
		<path class="st6" d="M52.3,229.9c-0.3,0-0.6-0.1-0.8-0.4c-1.6-1.9-3-4-4.3-6.1c-2.2-3.6-4-7.4-5.3-11.4c-0.2-0.6,0.1-1.2,0.7-1.4
			c0.6-0.2,1.2,0.1,1.4,0.7c1.3,3.8,3,7.5,5.1,11c1.2,2,2.6,4,4.1,5.8c0.4,0.5,0.3,1.1-0.2,1.5C52.8,229.8,52.6,229.9,52.3,229.9z"
			/>
	</g>
	<g>
		<path class="st6" d="M102.4,228.2c-1.1,0-2.1,0-3.2,0c-14-0.1-28.1-0.8-42.1-2.1c-0.6-0.1-1-0.6-1-1.2c0.1-0.6,0.6-1,1.2-1
			c13.9,1.3,27.9,2,41.9,2.1c13.3,0.1,26.8-0.4,40.1-1.4c0.6-0.1,1.1,0.4,1.2,1s-0.4,1.1-1,1.2C127.2,227.7,114.7,228.2,102.4,228.2
			z"/>
	</g>
	<g>
		<path class="st6" d="M54.4,308.9C54.4,308.9,54.4,308.9,54.4,308.9c-0.7,0-1.1-0.6-1.1-1.2c1.7-22.2,1.6-44.6-0.3-66.6
			c-0.8-9.5-2-19.2-3.5-28.6c-0.1-0.6,0.3-1.1,0.9-1.2c0.6-0.1,1.1,0.3,1.2,0.9c1.5,9.5,2.7,19.2,3.5,28.8c1.9,22.1,2,44.7,0.4,67
			C55.5,308.5,55,308.9,54.4,308.9z"/>
	</g>
	<g>
		<path class="st6" d="M49.5,261.2c-1,0-1.9,0-2.9-0.1c-7.1-0.6-11.9-3.5-18-7c-1.4-0.8-2.8-1.7-4.4-2.5c-5-2.8-10.2-5.4-15.6-7.6
			c-0.5-0.2-0.8-0.7-0.6-1.3c3.4-13.4,8.3-26.3,14.4-38.3c10.1-19.7,17-24.1,19.3-25.6c2-1.3,3.3-1.9,16.9-7.8
			c8-3.5,14.7-6.3,19.6-8.4c0.5-0.2,1.2,0,1.4,0.6c0.2,0.5,0,1.2-0.6,1.4c-4.9,2.1-11.6,4.9-19.6,8.4c-13.4,5.8-14.8,6.5-16.6,7.6
			c-2.2,1.4-8.7,5.6-18.5,24.8c-5.9,11.6-10.6,24.1-14,37c5.2,2.2,10.2,4.7,15,7.4c1.6,0.9,3.1,1.7,4.4,2.6
			c6.1,3.6,10.6,6.2,17.2,6.8c1.8,0.2,3.6,0.2,5.4,0c0.6-0.1,1.1,0.4,1.2,1c0.1,0.6-0.4,1.1-1,1.2C51.5,261.1,50.5,261.2,49.5,261.2
			z"/>
	</g>
	<g>
		<path class="st6" d="M108.9,177c-4.7,0-9.7-0.8-14.7-3.1c-5.3-2.4-9.9-6.2-13.7-11.2c-0.4-0.5-0.3-1.1,0.2-1.5
			c0.5-0.4,1.1-0.3,1.5,0.2c3.6,4.7,7.9,8.2,12.9,10.5c13.8,6.3,27.8,0.9,34.5-1.8c6.5-2.5,12.5-6.2,17.9-11
			c0.4-0.4,1.1-0.4,1.5,0.1c0.4,0.4,0.3,1.1-0.1,1.5c-5.6,4.9-11.8,8.8-18.5,11.4C126.1,173.8,118.1,177,108.9,177z"/>
	</g>
	<g>
		<path class="st6" d="M108,168.2c-4,0-8-0.8-11.8-2.8c-3.2-1.7-6.1-4.3-8.4-7.7c-0.3-0.5-0.2-1.2,0.3-1.5c0.5-0.3,1.2-0.2,1.5,0.3
			c2.1,3.1,4.7,5.4,7.7,7c10.9,5.9,24.5,0.2,32.6-3.2c4.5-1.9,8.8-4.2,12.7-6.9c0.5-0.3,1.2-0.2,1.5,0.3c0.3,0.5,0.2,1.2-0.3,1.5
			c-4.1,2.8-8.5,5.2-13.1,7.1C124.9,164.7,116.5,168.2,108,168.2z"/>
	</g>
	<g>
		<path class="st6" d="M155.8,162.4c-0.1,0-0.2,0-0.3-0.1l-5.2-1.7c-0.6-0.2-0.9-0.8-0.7-1.4c0.2-0.6,0.8-0.9,1.4-0.7l5.2,1.7
			c0.6,0.2,0.9,0.8,0.7,1.4C156.7,162.1,156.3,162.4,155.8,162.4z"/>
	</g>
	<g>
		<path class="st6" d="M95.3,87.9c-0.2,0-0.5-0.1-0.7-0.2c-2.1-1.6-4.6-2.8-7.3-3.3c-3.4-0.7-6.4-0.2-8.2,0.3
			c-0.6,0.2-1.2-0.2-1.3-0.7c-0.2-0.6,0.2-1.2,0.7-1.3c3-0.9,6.2-1,9.2-0.4c2.9,0.6,5.8,1.9,8.1,3.7c0.5,0.4,0.6,1,0.2,1.5
			C96,87.8,95.7,87.9,95.3,87.9z"/>
	</g>
	<g>
		<path class="st6" d="M102.7,110c-0.3,0-0.5-0.1-0.7-0.3l-4.5-4.2c-0.4-0.4-0.5-1.1-0.1-1.5c1-1.1,3.4-4.3,3.2-8.7
			c-0.1-2.9-1.3-5.1-2.2-6.4c-0.3-0.5-0.2-1.2,0.2-1.5c0.5-0.3,1.2-0.2,1.5,0.2c1.1,1.6,2.5,4.2,2.6,7.6c0.2,4.4-1.7,7.7-3.1,9.4
			l3.8,3.5c0.4,0.4,0.5,1.1,0.1,1.5C103.3,109.8,103,110,102.7,110z"/>
	</g>
	<g>
		<path class="st6" d="M119.8,97C119.8,97,119.8,97,119.8,97c-0.7,0-1.1-0.6-1.1-1.1l0.3-5.2c0-0.6,0.5-1,1.1-1c0.6,0,1,0.6,1,1.1
			l-0.4,5.2C120.9,96.6,120.4,97,119.8,97z"/>
	</g>
	<g>
		<path class="st6" d="M88.4,98.4C88.3,98.4,88.3,98.4,88.4,98.4c-0.7,0-1.1-0.5-1.1-1.1l0.3-6.3c0-0.6,0.5-1,1.1-1
			c0.6,0,1,0.5,1,1.1l-0.3,6.3C89.4,98,88.9,98.4,88.4,98.4z"/>
	</g>
	<g>
		<path class="st6" d="M116.3,86.9c-0.5,0-0.9-0.3-1-0.8c-0.2-0.6,0.2-1.2,0.8-1.3c2.2-0.6,4.5-1.1,6.8-1.4c2.8-0.4,5.7-0.7,8.5-0.7
			c0.6,0,1.1,0.5,1.1,1.1c0,0.6-0.5,1.1-1.1,1.1c-2.8,0-5.5,0.3-8.2,0.7c-2.2,0.3-4.4,0.8-6.5,1.4C116.5,86.9,116.4,86.9,116.3,86.9
			z"/>
	</g>
	<g>
		<path class="st6" d="M141.1,109c-0.2,0-0.5,0-0.7-0.1c-0.4-0.1-0.9-0.5-1.3-1.4c-0.7-1.6-0.6-4.4,0.4-6.7c1.1-2.6,2.4-3.9,3.9-3.8
			c1.8,0.1,3.2,2.3,3.4,5.2c0,0.6-0.4,1.1-1,1.2c-0.4,0-0.8-0.2-1-0.5c0.4,1.6,0.2,3.1-0.6,4.3C143.6,107.9,142.4,109,141.1,109z
			 M141.6,101.1c-0.1,0.1-0.1,0.3-0.2,0.4c-1,2.4-0.7,4.9-0.2,5.3c0.1,0,0.8-0.5,1.1-1C143.2,104.7,142.9,102.8,141.6,101.1z
			 M142.9,99.3c0.1,0,0.1,0.1,0.2,0.2c0.8,0.9,1.3,1.9,1.6,2.8c-0.2-2.1-1.1-3.2-1.4-3.2C143.1,99.1,143,99.1,142.9,99.3z"/>
	</g>
	<g>
		<path class="st6" d="M138.4,117.3c-0.4,0-0.8-0.2-1-0.6c-0.2-0.5,0-1.2,0.5-1.4c2.9-1.3,7-3.8,9.7-8.3c3.1-5.2,3.8-9.1,2.1-11.4
			c-1.2-1.6-3.3-2.2-4.9-2.4c-0.6-0.1-1-0.6-0.9-1.2c0.1-0.6,0.6-1,1.2-0.9c2.9,0.3,5.1,1.5,6.3,3.2c2.2,3.1,1.6,7.7-2,13.8
			c-3,5-7.4,7.8-10.6,9.2C138.7,117.3,138.5,117.3,138.4,117.3z"/>
	</g>
	<g>
		<path class="st6" d="M108.6,144.6c-0.1,0-0.2,0-0.4,0c-5.6-0.1-9.6-2.6-11.7-4c-7.6-4.8-10.9-12-14-19c-2.9-6.5-5-13.4-6-20.6
			c-0.1-0.6,0.3-1.1,0.9-1.2c0.6-0.1,1.1,0.3,1.2,0.9c1,7,3,13.7,5.9,20c3.2,7,6.2,13.6,13.2,18.1c2,1.3,5.6,3.6,10.6,3.7
			c6.2,0.1,10.7-3.3,14-5.7c7.8-5.9,11.7-13.8,13.6-19.4c0.2-0.6,0.8-0.9,1.4-0.7c0.6,0.2,0.9,0.8,0.7,1.4
			c-2,5.9-6.1,14.2-14.4,20.4C120.3,140.9,115.4,144.6,108.6,144.6z"/>
	</g>
	<g>
		<path class="st6" d="M99.9,160c-0.6,0-1.1-0.5-1.1-1.1v-17.8c0-0.6,0.5-1.1,1.1-1.1c0.6,0,1.1,0.5,1.1,1.1v17.8
			C101,159.5,100.5,160,99.9,160z"/>
	</g>
	<g>
		<path class="st6" d="M139.1,152.6c-0.4,0-0.9-0.3-1-0.7c-1.8-5.2-3-10.5-3.6-16c-0.5-4.8-0.5-9.7,0-14.6c0.1-0.6,0.6-1,1.2-1
			c0.6,0.1,1,0.6,1,1.2c-0.5,4.7-0.5,9.4,0,14.1c0.5,5.3,1.7,10.5,3.4,15.5c0.2,0.6-0.1,1.2-0.7,1.4
			C139.3,152.6,139.2,152.6,139.1,152.6z"/>
	</g>
	<g>
		<path class="st6" d="M90.1,160c-0.6,0-1.1-0.5-1.1-1.1c0-0.6,0.5-1.1,1.1-1.1c1.9,0,3.8-0.5,5.5-1.3c1.3-0.6,2.5-1.5,3.5-2.6
			c0.4-0.4,1.1-0.4,1.5,0c0.4,0.4,0.4,1.1,0,1.5c-1.2,1.2-2.6,2.3-4.1,3C94.5,159.4,92.3,159.9,90.1,160C90.1,160,90.1,160,90.1,160
			z"/>
	</g>
	<g>
		<path class="st3" d="M130,80.8c-1.9,0-3.5-0.5-4.7-1.6c-0.4-0.4-0.7-0.8-1-1.2c-2.2,0.8-4.1,0.7-5.5,0.4c-4.4-0.9-6.6-4.3-7.4-5.8
			c-2.9-5.6,0-11.2,0.4-11.9c0.3-0.5,0.9-0.7,1.5-0.4c0.5,0.3,0.7,0.9,0.4,1.5c-0.3,0.5-2.8,5.2-0.3,9.8c0.6,1.2,2.4,4,5.9,4.7
			c1,0.2,2.5,0.3,4.2-0.3c-0.3-1.1-0.5-2.2-0.4-3.2c0.1-1.4,0.6-2.5,1.4-3c0.9-0.6,2.2-0.7,3.5-0.2c1.2,0.4,2.1,1.3,2.4,2.2
			c0.4,1.6-0.8,3.3-3.6,5c-0.1,0.1-0.2,0.1-0.3,0.2c0.1,0.2,0.3,0.4,0.5,0.5c2,1.8,7.5,1.3,13.7-3.2c0.5-0.4,1.1-0.2,1.5,0.2
			c0.4,0.5,0.2,1.1-0.2,1.5C137.7,79.2,133.4,80.8,130,80.8z M126.3,71.5c-0.3,0-0.5,0-0.6,0.1c-0.2,0.1-0.4,0.6-0.5,1.4
			c0,0.6,0,1.4,0.2,2.1c0,0,0.1,0,0.1-0.1c2.2-1.4,2.8-2.4,2.7-2.7c0-0.2-0.4-0.5-1-0.8C126.9,71.6,126.5,71.5,126.3,71.5z"/>
	</g>
	<g>
		<path class="st3" d="M149.2,90c-0.2,0-0.5-0.1-0.7-0.3c-0.4-0.4-0.5-1.1-0.1-1.5c2.2-2.6,2.4-5.4,1.5-6.2
			c-0.1-0.1-0.3-0.2-0.5-0.3c-0.1,0.4-0.2,0.9-0.4,1.3c-0.5,1.4-1.5,2.9-2.8,3.1c-0.7,0.1-1.4-0.3-2-1c-0.6-0.7-1.1-1.7-0.8-2.8
			c0.3-1.1,1.4-2,3-2.6c0.3-0.1,0.6-0.2,1-0.2c-0.1-0.4-0.3-0.8-0.6-1.1c-0.8-0.9-2.5-1.1-4.1-0.4c-0.6,0.2-1.2-0.1-1.4-0.6
			c-0.2-0.6,0.1-1.2,0.6-1.4c2.4-0.9,5-0.6,6.4,1c0.7,0.7,1.1,1.6,1.2,2.6c0.7,0.1,1.4,0.4,1.9,0.9c1.8,1.6,1.7,5.7-1.3,9.2
			C149.8,89.9,149.5,90,149.2,90z M147.1,81.8c-0.1,0-0.2,0-0.2,0.1c-1.1,0.3-1.5,0.8-1.6,1c-0.1,0.3,0.3,0.9,0.6,1.1
			C146.3,83.8,146.8,83,147.1,81.8z"/>
	</g>
	<g>
		<path class="st3" d="M100.6,79.2C100.6,79.2,100.6,79.2,100.6,79.2c-1.4-0.1-3.9-0.5-5.7-2.4c-1.4-1.5-2.1-3.6-2.1-5.9
			c-0.9-0.8-1.7-1.7-2.2-2.7c-1.4-2.4-1.6-5.7-0.8-8.7c-0.1-0.3-0.3-0.6-0.4-1c-1.7-5,0.3-12.3,6.1-15.3c3.6-1.9,7.3-1.3,9.2-0.8
			c0.6,0.2,0.9,0.7,0.8,1.3c-0.2,0.6-0.7,0.9-1.3,0.8c-1.6-0.4-4.7-0.9-7.6,0.6c-4.3,2.2-6.1,7.5-5.4,11.4c0.9-1.3,2-2.2,3.2-2.6
			c1.5-0.4,3.3-0.2,4.8,0.6c1.2,0.6,1.9,1.6,2.2,2.6c0.3,1.3-0.2,2.9-1.4,4.2c-1.2,1.3-3.2,2.6-5.4,2.3c-1.1-0.1-2.1-0.7-3-1.7
			c-0.2,1.8,0.2,3.6,0.9,5c0.2,0.4,0.5,0.7,0.8,1.1c0.5-1.7,1.5-3,2.7-3.6c1.5-0.8,3.6-0.7,5.3,0.1c1.3,0.6,2.2,1.6,2.5,2.7
			c0.5,2.3-1.6,4.7-3.8,5.5c-1.6,0.5-3.3,0.3-4.8-0.5c0.2,1.1,0.7,2.2,1.4,2.9c1.3,1.4,3.2,1.7,4.2,1.8c0.6,0,1,0.5,1,1.1
			C101.6,78.7,101.2,79.2,100.6,79.2z M95,69.9c1.3,0.9,2.9,1.4,4.2,0.9c1.4-0.5,2.7-2,2.5-2.9c-0.1-0.4-0.6-0.9-1.3-1.2
			c-1.2-0.5-2.6-0.6-3.5-0.2c-0.9,0.4-1.6,1.6-1.8,3.1C95.1,69.7,95,69.8,95,69.9z M92.1,59.3c0.6,1,1.4,2.2,2.7,2.3
			c1.1,0.1,2.5-0.5,3.5-1.6c0.7-0.8,1.1-1.7,0.9-2.3c-0.1-0.4-0.5-0.9-1.2-1.2c-1-0.5-2.2-0.7-3.1-0.5
			C93.9,56.4,92.8,57.6,92.1,59.3C92.2,59.3,92.1,59.3,92.1,59.3z"/>
	</g>
	<g>
		<path class="st3" d="M76.1,79.5c-0.4,0-0.7-0.2-0.9-0.5c-0.6-1-1.8-3.5-0.7-5.6c1-1.9,3.4-2.6,5.8-2.7c0.2-1.2,0.6-2.5,1.3-3.7
			c1-1.8,2.6-3.3,4.7-4.3c0.5-0.3,1.2,0,1.4,0.5c0.3,0.5,0,1.2-0.5,1.4c-1.1,0.6-2.7,1.6-3.7,3.4c-0.5,0.9-0.8,1.9-1,2.8
			c1.4,0.2,3.4,0.8,3.9,2.3c0.3,0.9-0.2,2-1.2,3c-1,1-2.1,1.4-3,1.1c-0.5-0.1-1.1-0.5-1.5-1.6c-0.3-0.7-0.5-1.7-0.5-2.8
			c0,0-0.1,0-0.1,0c-1.8,0.1-3.1,0.6-3.6,1.5c-0.6,1.2,0.4,3,0.7,3.5c0.3,0.5,0.1,1.2-0.4,1.5C76.5,79.5,76.3,79.5,76.1,79.5z
			 M82.2,73.1c0,1.1,0.3,1.9,0.5,2.2c0.5-0.1,1.4-1.1,1.4-1.5C84,73.6,83.3,73.3,82.2,73.1z"/>
	</g>
	<g>
		<path class="st3" d="M66.4,85.5c-1.2,0-2.3-0.3-3.4-0.9c-1.7-1-3-2.7-3.5-4.8c-2.3-0.8-4.3-2.3-5.3-4.4c-2.7-5.4,1.7-11.5,5.6-14
			c3.2-2,6.5-2.1,8.7-1.9c0.6,0.1,1,0.6,1,1.2c-0.1,0.6-0.6,1-1.2,1c-1.9-0.2-4.7-0.1-7.4,1.6c-3.4,2.1-6.9,7.2-4.9,11.2
			c0.6,1.2,1.8,2.3,3.1,2.9c0-2,0.7-3.7,1.9-4.7c1.7-1.4,4.4-1.2,6.1-0.6c1.6,0.6,2.7,1.5,3,2.6c0.5,2.2-2.1,4.3-4.1,5.1
			c-1.3,0.5-2.7,0.7-4.1,0.5c0.4,1,1.1,1.9,2.1,2.4c1.8,1,4.5,0.6,6.5-1c0.5-0.4,1.1-0.3,1.5,0.2c0.4,0.5,0.3,1.1-0.2,1.5
			C70.2,84.8,68.2,85.5,66.4,85.5z M61.4,78.1c1.3,0.2,2.7,0.2,3.8-0.3c1.7-0.7,3-2.1,2.9-2.6c-0.1-0.2-0.6-0.7-1.6-1.1
			c-1.3-0.5-3.1-0.5-4.1,0.2C61.7,75,61.2,76.5,61.4,78.1C61.4,78.1,61.4,78.1,61.4,78.1z"/>
	</g>
	<g>
		<path class="st3" d="M71.8,98.5c-1.4,0-2.8-0.5-3.8-1.4c-1.2-1.1-1.8-2.8-1.8-4.6c-0.2-0.1-0.3-0.3-0.4-0.4
			c-2.2-2.6-1-6.2-0.9-6.6c0.2-0.6,0.8-0.9,1.4-0.7c0.6,0.2,0.9,0.8,0.7,1.4c0,0.1-0.7,2,0,3.7c0.3-0.6,0.8-1.1,1.3-1.4
			c1.1-0.7,2.5-0.6,3.3,0.1c0.7,0.5,1,1.4,1,2.5c-0.1,1.2-0.6,2.2-1.4,2.7c-0.8,0.5-1.7,0.5-2.5,0.2c0.2,0.6,0.5,1.2,0.9,1.6
			c1,0.9,2.6,1.1,4.1,0.5c0.6-0.2,1.2,0.1,1.4,0.6c0.2,0.6-0.1,1.2-0.6,1.4C73.5,98.3,72.7,98.5,71.8,98.5z M68.6,91.6
			c0.6,0.3,1.1,0.5,1.4,0.3c0.2-0.1,0.4-0.5,0.4-1c0-0.4-0.1-0.7-0.2-0.7c-0.1-0.1-0.6-0.1-0.9,0.1C69.1,90.4,68.7,90.9,68.6,91.6z"
			/>
	</g>
	<g>
		<path class="st3" d="M70.5,57.8c-0.2,0-0.4,0-0.5-0.1c-0.6-0.3-5.9-3.6-6.1-9.6c0-1.1,0-6.7,4.4-9c1.9-1,4.3-1.2,6.6-0.4
			c0.1,0,0.1,0,0.2,0.1c0.5-1.3,1.3-2.5,2.5-3.4c1.5-1.2,3.4-1.6,5.2-1.6c0,0,0,0,0,0c0.2-1.1,0.6-2.1,1.3-2.8
			c1.9-1.9,5.9-1.7,9.7,0.5c0.5,0.3,0.7,1,0.4,1.5c-0.3,0.5-1,0.7-1.5,0.4c-2.8-1.6-5.9-2-7.1-0.9c-0.4,0.4-0.6,0.9-0.7,1.5
			c1,0.2,1.9,0.5,2.7,0.8c2.1,0.9,4.4,2.5,4.7,4.5c0.1,1.1-0.3,2.4-1.3,3.4c-0.9,0.9-2,1.4-3,1.3c-2.1-0.2-3.7-2.7-4.5-5
			c-0.3-0.9-0.6-2-0.7-3c-1.4,0-2.7,0.3-3.9,1.2c-0.9,0.7-1.5,1.6-1.9,2.6c1.3,0.8,2.3,1.9,2.9,3c1.1,2.1,0.9,4.8,0.3,6.2
			c-0.4,0.9-0.9,1.1-1.3,1.2c-0.3,0.1-0.9,0.1-1.5-0.4c-1.4-1-2.7-3.7-2.9-6.2c-0.1-0.9-0.1-1.8,0.1-2.9c-0.1,0-0.2-0.1-0.3-0.1
			c-1.7-0.6-3.5-0.5-4.9,0.3C65.9,42.7,66,47.5,66,48c0.2,5,4.9,7.7,5.1,7.9c0.5,0.3,0.7,1,0.4,1.5C71.2,57.7,70.9,57.8,70.5,57.8z
			 M76.5,41.9c0,0.5,0,1,0,1.5c0.2,2,1.2,3.7,1.8,4.4c0.3-0.8,0.4-2.6-0.3-4.2C77.6,43,77.1,42.4,76.5,41.9z M84.9,36.1
			c0.1,0.6,0.3,1.3,0.5,2c0.8,2.2,2,3.6,2.7,3.6c0.3,0,0.8-0.2,1.3-0.7c0.5-0.5,0.8-1.2,0.7-1.6c-0.1-0.7-1.3-1.9-3.3-2.8
			C86.2,36.4,85.6,36.2,84.9,36.1z"/>
	</g>
	<g>
		<path class="st3" d="M162.1,87.2c-0.4,0-0.8-0.2-0.9-0.6c-0.3-0.5-0.1-1.2,0.4-1.4c1.3-0.7,2.4-1.6,3.1-2.8
			c1.4-2.2,2.4-6.4,0.1-8.8c-1.4-1.5-3.4-1.7-4.5-1.8c-0.4,0-0.7-0.2-0.9-0.6c-0.2-0.3-0.2-0.7,0-1.1c0.7-1.2,1.1-2.4,1.2-3.7
			c0.2-3-1.2-7.5-4.4-8.3c-2.4-0.6-4.7,1-5.4,1.6c-0.4,0.3-1.1,0.3-1.4-0.1c-0.4-0.4-0.4-1,0-1.4c2.1-2.4,3.3-5.1,3.6-7.8
			c0.4-4.3-1.6-9.1-5.3-12.9c-3.5-3.6-7.9-5.5-11.7-5.2c-2.3,0.2-4.6,1.4-6.7,3.5c-0.4,0.4-1.1,0.4-1.5,0c-0.4-0.4-0.4-1.1,0-1.5
			c2.5-2.5,5.2-3.9,8-4.2c4.5-0.4,9.5,1.8,13.4,5.8c4.2,4.2,6.4,9.7,5.9,14.6c-0.2,1.9-0.8,3.7-1.7,5.5c1-0.2,2.2-0.3,3.3,0
			c4.7,1.2,6.4,6.9,6.1,10.6c-0.1,1.1-0.4,2.2-0.8,3.2c1.4,0.3,3,0.9,4.4,2.3c2.9,3.1,2.2,8.2,0.1,11.5c-0.9,1.4-2.3,2.7-3.9,3.5
			C162.5,87.2,162.3,87.2,162.1,87.2z"/>
	</g>
	<g>
		<path class="st3" d="M145.2,119.6c-1,0-2.1-0.2-3.1-0.6c-0.5-0.2-0.8-0.9-0.6-1.4c0.2-0.5,0.9-0.8,1.4-0.6
			c2.1,0.9,4.5,0.5,5.7-1.1c1.1-1.4,0.9-3.2,0.8-3.7c-0.1-0.3,0-0.6,0.2-0.8c0.2-0.2,0.4-0.4,0.7-0.4c0.3,0,2.7-0.5,3.8-2.6
			c0.9-1.8,0.6-4.1-0.9-5.8c-0.3-0.3-0.4-0.8-0.1-1.3c0.2-0.4,0.7-0.6,1.1-0.5c4.3,0.9,8.6-1.1,10-4.6c1.3-3.3-0.7-6.7-1-7.1
			c-0.3-0.5-0.2-1.2,0.3-1.5c0.5-0.3,1.2-0.2,1.5,0.3c0.5,0.8,2.8,4.8,1.1,9c-1.5,3.8-5.6,6.3-10.1,6.2c0.9,2,0.9,4.3-0.1,6.2
			c-1.1,2.2-3.1,3.1-4.3,3.5c0,1.1-0.2,2.9-1.4,4.4C149.1,118.8,147.2,119.6,145.2,119.6z"/>
	</g>
	<g>
		<path class="st3" d="M103.8,33.9c-0.2,0-0.3,0-0.5,0c-1.2-0.2-2.7-0.9-3.3-2.2c-0.5-1.1-0.3-2.5,0.4-4c-0.6-0.5-1.2-0.9-1.9-1.1
			c-0.8-0.2-1.3-0.1-1.5,0c-0.8,0.5-1.2,2.6-0.3,5c0.2,0.5,0,1.2-0.6,1.4c-0.5,0.2-1.2,0-1.4-0.6c-1.3-3.1-0.8-6.5,1.1-7.6
			c0.9-0.5,2-0.6,3.3-0.2c0.9,0.3,1.7,0.7,2.5,1.3c1.5-1.8,3.5-2.9,5.6-3c2.3-0.1,4.3,1.1,5.7,2.6c1.9-1.3,4.9-2.2,7.7-1.1
			c3,1.2,4.9,4.6,4.9,8.4c0,0.6-0.5,1.1-1.1,1.1c-0.6,0-1.1-0.5-1.1-1.1c0.1-2.9-1.4-5.5-3.5-6.3c-2-0.8-4.2-0.1-5.6,0.9
			c0.2,0.3,0.3,0.6,0.4,0.9c0.4,1.1,1.1,4.1-0.6,4.8c-0.6,0.3-1.3,0.1-2-0.3c-1-0.6-1.9-1.8-1.9-3.1c0-0.9,0.4-1.8,1.2-2.7
			c-1-1.1-2.5-1.9-4-1.8c-1.8,0.1-3.3,1.2-4.2,2.5c0.3,0.5,0.6,1,0.9,1.5c2.1,2.8,1.8,3.8,1.3,4.4C105,33.6,104.6,33.9,103.8,33.9z
			 M101.9,29.7c-0.1,0.5-0.1,0.9,0,1.1c0.2,0.4,0.8,0.7,1.3,0.9c-0.2-0.4-0.5-0.9-1-1.6c0-0.1-0.1-0.1-0.1-0.2
			C102,29.9,102,29.8,101.9,29.7z M112.5,28.7c-0.2,0.3-0.3,0.6-0.3,0.8c0,0.4,0.4,0.8,0.7,1.1c0-0.5-0.1-1.2-0.3-1.8
			C112.5,28.8,112.5,28.7,112.5,28.7z"/>
	</g>
	<g>
		<path class="st7" d="M99.9,148.4c2.2,0.7,6.7,1.7,11.9,0.4c10.7-2.8,14.8-13.3,15.2-14.5c-2.5,2.6-4.9,4.4-6.6,5.6
			c-2.9,1.9-5.1,3.4-8.4,3.8c-2.8,0.4-5-0.1-6.3-0.4c-2.4-0.5-4.3-1.4-5.6-2.1C100,143.6,99.9,146,99.9,148.4z"/>
	</g>
	<g>
		<path class="st4" d="M178.1,219.9c1,3.7,2.6,6.7,3.8,8.7c4.1,0.3,19.5,0.7,31.1-10.1c3.2-3,5.4-6.2,7-9.1
			c-4.2,2-14.4,6.1-27.3,3.8c-7-1.2-12.3-3.8-15.7-5.9C176.7,210.2,176.6,214.7,178.1,219.9z"/>
	</g>
	<g>
		<path class="st4" d="M251.5,249.3c2.3-4.2,4.7-8.4,7-12.6c2,7.1,1.9,12.7,1.4,16.8c-1.1,8.8-5.6,18.9-5.6,18.9c0,0-0.3-7.1-1-13.3
			C252.9,256.7,252.4,253.4,251.5,249.3z"/>
	</g>
	<g>
		<path class="st4" d="M155,247.5c-0.7,1.9-3.4,10.2,0.7,19.2c2.8,6.2,7.4,9.5,9.4,10.8c-0.7-2.5-1.4-5.4-1.7-8.7
			c-0.5-4.5-0.3-8.4,0-11.5c-1.1-0.9-2.3-1.9-3.5-3.1C157.6,251.8,156.1,249.5,155,247.5z"/>
	</g>
	<g>
		<path class="st5" d="M180.5,162.6c-0.8,6.7-1.5,13.7-2.1,21c-0.7,8.5-1.1,16.6-1.4,24.5c2.6-0.4,6.2-1.2,10.1-3.1
			c5.6-2.7,9.2-6.4,11.2-8.7c-0.2-3.8-0.5-7.7-0.7-11.5c-2.3-1.5-5-3.5-7.7-6.3C184.5,172.6,181.8,166.5,180.5,162.6z"/>
	</g>
	<g>
		<path class="st5" d="M219.7,187.4c-0.1,2.7-0.2,5.4-0.4,8c6.8,2.8,13.5,5.6,20.3,8.4c1.7-5.3,3.4-12.3,3.8-20.6
			c0.7-14.2-2.6-25.6-5.2-32.5c0.2,8.7-1.7,15.4-3.1,19.2c-1.7,4.6-3.8,9.9-9.1,14C223.6,185.7,221.3,186.8,219.7,187.4z"/>
	</g>
	<g>
		<path class="st6" d="M265.9,185.1C265.9,185.1,265.9,185.1,265.9,185.1c-0.6,0-1.1-0.5-1.1-1.1c0-5.2,0.2-10.1,0.5-14.8l0-0.4
			c0.2-3.7,0.4-6.8-1.6-9c-0.3-0.3-0.6-0.6-1-0.9l-1.3,23.7c0,0.6-0.5,1.1-1.1,1c-0.6,0-1-0.5-1-1.1l1.4-25.4c0-0.3,0.2-0.7,0.5-0.8
			c0.3-0.2,0.7-0.2,1-0.1c1.3,0.5,2.3,1.2,3.2,2.1c2.6,2.8,2.4,6.6,2.2,10.5l0,0.4c-0.3,4.7-0.4,9.5-0.5,14.7
			C266.9,184.7,266.4,185.1,265.9,185.1z"/>
	</g>
	<g>
		<path class="st6" d="M263.9,215.2c-0.4,0-0.7-0.2-0.9-0.5c-2.2-3.6-3.8-7.5-4.7-11.5c-1.3-5.6-1.3-11.6,0-17.3
			c0.1-0.6,0.7-0.9,1.3-0.8c0.6,0.1,0.9,0.7,0.8,1.3c-1.2,5.4-1.2,11,0,16.3c0.9,3.8,2.4,7.5,4.4,10.9c0.3,0.5,0.1,1.2-0.4,1.5
			C264.3,215.2,264.1,215.2,263.9,215.2z"/>
	</g>
	<g>
		<path class="st6" d="M278.6,217.3c-0.2,0-0.5-0.1-0.7-0.2c-0.5-0.4-0.5-1.1-0.1-1.5c1.9-2.2,3.2-4.7,4-7.3c0.7-2.3,0.8-4.3,1-6.8
			c0.2-2.4,0.2-4.8,0-7.2c0-0.6,0.4-1.1,1-1.1c0.6,0,1.1,0.4,1.1,1c0.2,2.5,0.2,5,0,7.5c-0.2,2.6-0.3,4.7-1.1,7.2
			c-0.9,2.9-2.4,5.6-4.4,8.1C279.2,217.2,278.9,217.3,278.6,217.3z"/>
	</g>
	<g>
		<path class="st6" d="M274.7,216.6c-0.3,0-0.5-0.1-0.8-0.3c-0.4-0.4-0.4-1.1,0-1.5c0.6-0.6,2.5-2.8,2.2-5.4c-0.2-1.6-1.3-2.7-2.5-4
			c-1.3-1.4-2.8-2.5-4.6-3.3c-0.5-0.2-0.8-0.9-0.5-1.4c0.2-0.5,0.9-0.8,1.4-0.5c2,0.9,3.7,2.2,5.2,3.7c1.3,1.4,2.7,2.9,3.1,5.1
			c0.5,3.4-1.7,6.2-2.7,7.2C275.3,216.5,275,216.6,274.7,216.6z"/>
	</g>
	<g>
		<path class="st6" d="M268.8,200.5c-0.2,0-0.5-0.1-0.7-0.2c-2.8-2.1-3.9-4-3.5-5.6c0.3-1.2,1.3-2,2.3-2.7c1-0.7,2-1.4,2.6-2.6
			c0.3-0.6,0.4-1.1,0.3-1.5c0-0.1-0.1-0.2-0.1-0.2c-1.7,0.2-4,0.8-6.3,2.4c-1.7,1.1-3.2,2.7-4.3,4.4c-0.3,0.5-1,0.7-1.5,0.3
			c-0.5-0.3-0.7-1-0.3-1.5c1.3-2,2.9-3.8,4.9-5.1c2.9-2,5.9-2.6,7.8-2.8c0.3,0,0.6,0.1,0.8,0.3c0.5,0.4,0.8,0.9,1,1.5
			c0.3,0.9,0.1,2-0.5,3.2c-0.9,1.7-2.2,2.6-3.3,3.4c-0.7,0.5-1.4,1-1.4,1.4c-0.1,0.3,0,1.3,2.8,3.5c0.5,0.4,0.6,1,0.2,1.5
			C269.4,200.4,269.1,200.5,268.8,200.5z"/>
	</g>
	<g>
		<path class="st6" d="M280.7,199.1c0,0-0.1,0-0.1,0l-11.5-1.4c-0.3,0-0.6-0.2-0.8-0.5c-0.2-0.3-0.2-0.6-0.1-1l2.4-5.9
			c0.2-0.5,0.9-0.8,1.4-0.6c0.5,0.2,0.8,0.9,0.6,1.4l-1.9,4.6l9.5,1.2l4.5-5.8l-1.5-5.8c-1.3-1.1-3.8-2.8-7.3-3.4
			c-3.3-0.5-6.1,0.2-7.8,1c-0.5,0.2-1.2,0-1.4-0.6c-0.2-0.5,0-1.2,0.6-1.4c2-0.8,5.1-1.7,9-1.1c4.3,0.7,7.2,2.9,8.6,4.1
			c0.2,0.1,0.3,0.3,0.3,0.5l1.7,6.6c0.1,0.3,0,0.7-0.2,0.9l-5.2,6.6C281.3,199,281,199.1,280.7,199.1z"/>
	</g>
	<g>
		<path class="st6" d="M273.9,198l-1.8-1.2l3.9-5.8l-1.9-5l-2-3l1.8-1.2l2.1,3.1c0,0.1,0.1,0.1,0.1,0.2l2.1,5.6
			c0.1,0.3,0.1,0.7-0.1,1L273.9,198z"/>
	</g>
	<g>
		<path class="st6" d="M278.4,198.7l-1.8-1.2l3.9-5.9l-1.3-5.6l-1.6-2.3l1.7-1.2l1.7,2.4c0.1,0.1,0.1,0.3,0.2,0.4l1.4,6.3
			c0.1,0.3,0,0.6-0.2,0.8L278.4,198.7z"/>
	</g>
	<g>
		<path class="st6" d="M269.9,317c-0.2,0-0.4,0-0.5-0.1c-1.8-1-3.4-2.3-4.8-3.7c-8.7-8.8-6.9-22.6-4.3-43.4
			c0.9-6.8,1.8-14.6,2.6-23.1c0.9-9.8,1.3-19.9,1.4-30c0-0.6,0.5-1.1,1.1-1.1c0,0,0,0,0,0c0.6,0,1.1,0.5,1.1,1.1
			c-0.1,10.2-0.5,20.3-1.4,30.2c-0.8,8.6-1.7,16.4-2.6,23.2c-2.6,20.2-4.2,33.6,3.7,41.7c1.1,1.1,2.4,2.1,3.8,3
			c3.4-2.2,6.2-4.9,8.2-8.1c6-9.2,4.5-20,3.7-25.8l-0.1-0.4c-2.1-15.4-3.4-35.2-3.9-60.6c0-0.6,0.5-1.1,1.1-1.1c0,0,0,0,0,0
			c0.6,0,1.1,0.5,1.1,1.1c0.5,25.3,1.8,45.1,3.8,60.4l0.1,0.4c0.8,6.1,2.4,17.4-4.1,27.2c-2.3,3.6-5.5,6.6-9.4,9.1
			C270.2,316.9,270,317,269.9,317z"/>
	</g>
	<g>
		<path class="st6" d="M197.8,207.9c0,0-0.1,0-0.1,0c-0.6-0.1-1-0.6-0.9-1.2c0.4-3,0.6-6,0.7-9c0.1-4.3-0.1-8.6-0.7-12.8
			c-0.1-0.6,0.3-1.1,0.9-1.2c0.6-0.1,1.1,0.3,1.2,0.9c0.6,4.3,0.8,8.7,0.7,13.1c-0.1,3.1-0.3,6.2-0.7,9.2
			C198.8,207.5,198.3,207.9,197.8,207.9z"/>
	</g>
	<g>
		<path class="st7" d="M200.3,192.1c1.4,1.7,3,2.5,3.8,2.8c1.4-0.2,2.4-0.5,3.1-0.7c3.7-1.1,6.3-2.6,9.1-4.2
			c0.4-0.2,3.6-2.2,3.5-2.4c-0.1-0.2-1.6,0.6-3.5,1c-2.8,0.7-5.2,0.5-7,0.3c-5-0.5-8.9-2.4-11-3.7C198.3,186,198,189.3,200.3,192.1z
			"/>
	</g>
	<g>
		<path class="st6" d="M178.6,208.9c-0.5,0-0.9-0.3-1-0.9c-0.1-0.6,0.3-1.1,0.8-1.3c4-0.8,7.8-2.3,11.2-4.4c2.1-1.3,4-2.7,5.8-4.4
			c0.4-0.4,1.1-0.4,1.5,0c0.4,0.4,0.4,1.1,0,1.5c-1.9,1.8-3.9,3.3-6.1,4.7c-3.6,2.2-7.6,3.8-11.9,4.7
			C178.7,208.9,178.6,208.9,178.6,208.9z"/>
	</g>
	<g>
		<path class="st6" d="M199.8,214.9c-0.8,0-1.6,0-2.4-0.1c-5.8-0.3-11.6-1.6-17.2-3.9c-0.5-0.2-0.8-0.9-0.6-1.4
			c0.2-0.5,0.9-0.8,1.4-0.6c5.3,2.2,10.8,3.5,16.4,3.8c15.7,0.8,27.8-6.5,33.6-11c0.5-0.4,1.1-0.3,1.5,0.2c0.4,0.5,0.3,1.1-0.2,1.5
			C226.6,207.8,215,214.9,199.8,214.9z"/>
	</g>
	<g>
		<path class="st6" d="M147.1,235.5c-0.4,0-0.7-0.2-0.9-0.6c-2.4-4.4-3.9-9-4.7-13.6c-1.5-9.4,1.1-15.3,4.3-22.6
			c2.1-4.8,4.5-10.3,6.2-18c2.7-12.1,3.8-29.4,2.8-44.1l0-0.5c-0.4-5-1-13.5,4-21.4c2.3-3.6,5.5-6.7,9.4-9.1
			c0.5-0.3,1.2-0.1,1.5,0.4c0.3,0.5,0.1,1.2-0.4,1.5c-3.7,2.2-6.6,5.1-8.7,8.4c-4.7,7.4-4.1,15.4-3.7,20.1l0,0.5
			c1.1,14.9-0.1,32.5-2.8,44.7c-1.8,7.9-4.2,13.5-6.4,18.4c-3.1,7-5.5,12.6-4.1,21.4c0.7,4.4,2.2,8.8,4.4,12.9
			c0.3,0.5,0.1,1.2-0.4,1.5C147.5,235.5,147.3,235.5,147.1,235.5z"/>
	</g>
	<g>
		<path class="st6" d="M157.2,239c-0.3,0-0.7-0.2-0.9-0.4c-2.9-4-4.8-8.6-5.4-13.4c-0.6-4-0.3-8,0.7-12c0.2-0.6,0.7-0.9,1.3-0.8
			c0.6,0.2,0.9,0.7,0.8,1.3c-1,3.7-1.2,7.4-0.7,11.1c0.6,4.5,2.4,8.8,5.1,12.5c0.3,0.5,0.2,1.1-0.2,1.5
			C157.7,238.9,157.5,239,157.2,239z"/>
	</g>
	<g>
		<path class="st6" d="M172.3,239c-0.2,0-0.3,0-0.5-0.1c-2.7-1.4-5-3.5-6.7-5.9c-3.6-5.3-3.3-11.1-3-13.3c0.1-0.6,0.6-1,1.2-0.9
			c0.6,0.1,1,0.6,0.9,1.2c-0.3,2-0.6,7.1,2.6,11.8c1.5,2.2,3.5,4,5.9,5.2c0.5,0.3,0.7,0.9,0.4,1.4C173,238.8,172.7,239,172.3,239z"
			/>
	</g>
	<g>
		<path class="st6" d="M186.3,235.8c-0.3,0-0.6-0.1-0.8-0.4c-3.9-4.3-6.7-9.2-8.3-14.4c-1.8-5.9-1.6-10.7-1.4-13.3
			c0.8-17.1,1.2-25.7,2.5-36.4c1.3-10.8,2-21.9,2.1-33.1c0-0.6,0.5-1.1,1.1-1.1c0,0,0,0,0,0c0.6,0,1.1,0.5,1.1,1.1
			c-0.1,11.3-0.8,22.5-2.1,33.3c-1.3,10.7-1.7,19.2-2.4,36.3c-0.1,2.5-0.3,7.1,1.4,12.6c1.5,4.9,4.1,9.5,7.8,13.6
			c0.4,0.4,0.4,1.1-0.1,1.5C186.8,235.8,186.5,235.8,186.3,235.8z"/>
	</g>
	<g>
		<path class="st6" d="M211.8,189.9c-1.6,0-2.9-0.2-3.6-0.2c-11.3-1.4-18.1-9.5-21-13c-3.6-4.3-6.2-9.2-7.9-14.7
			c-0.2-0.6,0.1-1.2,0.7-1.3c0.6-0.2,1.2,0.1,1.3,0.7c1.6,5.2,4.1,9.9,7.5,14c2.7,3.3,9.2,11,19.6,12.2c1.7,0.2,6.9,0.8,12.4-1.7
			c10.1-4.6,13.3-16.1,14.8-21.7c1.7-6.2,2.1-12.8,1-19.5c-0.1-0.6,0.3-1.1,0.9-1.2c0.6-0.1,1.1,0.3,1.2,0.9
			c1.1,7,0.7,13.8-1.1,20.4c-1.6,5.9-5,18.1-16,23.1C218,189.5,214.4,189.9,211.8,189.9z"/>
	</g>
	<g>
		<path class="st6" d="M220.5,203.3c-0.4,0-0.9-0.3-1-0.7c-1-3.1-1.5-6.3-1.5-9.5c0-2,0.3-3.9,0.7-5.8c0.1-0.6,0.7-0.9,1.3-0.8
			c0.6,0.1,0.9,0.7,0.8,1.3c-0.4,1.8-0.6,3.6-0.7,5.4c-0.1,3,0.4,5.9,1.3,8.7c0.2,0.6-0.1,1.2-0.7,1.4
			C220.8,203.3,220.7,203.3,220.5,203.3z"/>
	</g>
	<g>
		<path class="st6" d="M232.4,202.3c-0.1,0-0.2,0-0.3,0c-1.6-0.4-3.1-0.9-4.6-1.4c-2.2-0.8-4.4-1.8-6.4-2.9
			c-0.5-0.3-0.7-0.9-0.4-1.5c0.3-0.5,0.9-0.7,1.5-0.4c2,1.1,4.1,2,6.2,2.7c1.5,0.5,3,1,4.4,1.4c0.6,0.1,0.9,0.7,0.8,1.3
			C233.3,202,232.9,202.3,232.4,202.3z"/>
	</g>
	<g>
		<path class="st6" d="M228.8,137.4c-0.2,0-0.3,0-0.5-0.1c-0.5-0.3-0.7-0.9-0.5-1.4c1.2-2.4,3.1-7.2,2-13.3
			c-1.1-6.2-4.6-10.2-6.7-12c-0.4-0.4-0.5-1.1-0.1-1.5c0.4-0.4,1.1-0.5,1.5-0.1c2.2,2,6.1,6.4,7.3,13.2c1.2,6.7-0.9,12.1-2.2,14.7
			C229.5,137.2,229.2,137.4,228.8,137.4z"/>
	</g>
	<g>
		<path class="st6" d="M212.4,139.3c-0.3,0-0.6-0.1-0.8-0.3c-0.4-0.4-0.4-1.1,0-1.5c2-1.9,5.4-6.1,6.1-12.3
			c0.5-4.5-0.6-8.2-1.7-10.6c-0.2-0.5,0-1.2,0.5-1.4c0.5-0.2,1.2,0,1.4,0.5c1.2,2.6,2.4,6.7,1.9,11.7c-0.8,6.9-4.5,11.4-6.7,13.6
			C212.9,139.2,212.6,139.3,212.4,139.3z"/>
	</g>
	<g>
		<path class="st6" d="M195,139.7c-0.3,0-0.6-0.1-0.8-0.4c-0.4-0.5-0.3-1.1,0.2-1.5c2.5-2.1,4.6-4.5,6-7.4c3.3-6.3,2.7-12.6,2-15.7
			c-0.1-0.6,0.3-1.1,0.8-1.3c0.6-0.1,1.1,0.3,1.3,0.8c0.7,3.4,1.4,10.2-2.2,17.1c-1.6,3.1-3.8,5.8-6.6,8
			C195.5,139.6,195.3,139.7,195,139.7z"/>
	</g>
	<g>
		<path class="st6" d="M183.5,144.2c-0.2,0-0.4,0-0.5-0.1c-0.5-0.3-0.7-1-0.4-1.5c1.3-2.2,2.4-4.5,3.4-6.9c1.8-4.2,3-8.6,3.8-13.1
			c0.1-0.6,0.7-1,1.2-0.9c0.6,0.1,1,0.7,0.9,1.2c-0.8,4.6-2.1,9.2-3.9,13.5c-1,2.4-2.2,4.8-3.6,7.1
			C184.2,144,183.8,144.2,183.5,144.2z"/>
	</g>
	<g>
		<path class="st6" d="M218.4,133.4c-0.5,0-1-0.4-1.1-0.9c-0.1-0.6,0.3-1.1,0.9-1.2c1-0.2,1.9-0.3,2.9-0.4c1.3-0.1,2.7-0.1,4,0
			c0.6,0,1,0.6,1,1.1c0,0.6-0.6,1-1.1,1c-1.2-0.1-2.5-0.1-3.7,0c-0.9,0.1-1.8,0.2-2.7,0.3C218.6,133.4,218.5,133.4,218.4,133.4z"/>
	</g>
	<g>
		<path class="st6" d="M191.5,136.2c-0.3,0-0.7-0.2-0.9-0.4c-0.4-0.5-0.3-1.1,0.2-1.5c1.1-0.8,2.3-1.3,3.6-1.6
			c1.2-0.2,2.4-0.2,3.6,0c0.6,0.1,1,0.7,0.8,1.3c-0.1,0.6-0.7,1-1.3,0.8c-0.9-0.2-1.8-0.2-2.7,0c-1,0.2-1.9,0.6-2.7,1.2
			C192,136.1,191.7,136.2,191.5,136.2z"/>
	</g>
	<g>
		<path class="st6" d="M196.4,151.9c-0.6,0-1.1-0.5-1.1-1.1v-6.3c0-0.6,0.5-1.1,1.1-1.1s1.1,0.5,1.1,1.1v6.3
			C197.5,151.4,197,151.9,196.4,151.9z"/>
	</g>
	<g>
		<path class="st6" d="M224.4,151.2c-0.6,0-1.1-0.5-1.1-1.1v-7c0-0.6,0.5-1.1,1.1-1.1s1.1,0.5,1.1,1.1v7
			C225.5,150.7,225,151.2,224.4,151.2z"/>
	</g>
	<g>
		<path class="st6" d="M211.8,164.2c-0.2,0-0.5-0.1-0.7-0.2c-0.5-0.4-0.5-1-0.2-1.5l3.6-4.5c-1.3-1.5-3.1-3.8-4.1-6.3
			c-0.6-1.5-0.7-2.5-0.8-3.1c-0.1-1.1,0.1-2.1,0.4-3.2c0.2-0.6,0.8-0.9,1.3-0.7c0.6,0.2,0.9,0.8,0.7,1.3c-0.2,0.8-0.3,1.6-0.3,2.4
			c0,0.5,0.1,1.3,0.6,2.4c1.1,2.6,3.2,5.1,4.3,6.3c0.4,0.4,0.4,1,0.1,1.4l-4.2,5.2C212.4,164,212.1,164.2,211.8,164.2z"/>
	</g>
	<g>
		<path class="st6" d="M210.2,174.7c-1.5,0-3-0.3-4.4-0.8c-0.6-0.2-0.8-0.8-0.6-1.4c0.2-0.6,0.8-0.8,1.4-0.6c1,0.4,2.5,0.8,4.4,0.6
			c2.1-0.2,3.8-1,4.8-1.6c0.5-0.3,1.2-0.2,1.5,0.3c0.3,0.5,0.2,1.2-0.3,1.5c-1.2,0.8-3.2,1.7-5.7,1.9
			C210.9,174.7,210.6,174.7,210.2,174.7z"/>
	</g>
	<g>
		<path class="st6" d="M176.5,99.5c0,0-0.1,0-0.1,0c-0.6-0.1-1-0.6-1-1.2c0.4-3.6,1.5-6.7,3.3-9.3c6-8.3,19.4-10.8,33.4-6.3
			c0.6,0.2,0.9,0.8,0.7,1.3c-0.2,0.6-0.8,0.9-1.3,0.7c-13.1-4.2-25.5-2-31,5.6c-1.6,2.3-2.6,5-2.9,8.2C177.5,99,177,99.5,176.5,99.5
			z"/>
	</g>
	<g>
		<path class="st6" d="M243.3,128.5c-0.1,0-0.2,0-0.4-0.1c-0.6-0.2-0.8-0.8-0.6-1.4c1.3-3.4,1.8-6.9,1.7-10.4
			c-0.4-10.4-7-17.3-9.1-19.6c-3.9-4.1-8.8-7.2-14.3-9.2c-0.6-0.2-0.9-0.8-0.7-1.4c0.2-0.6,0.8-0.9,1.4-0.7c5.8,2,11,5.4,15.1,9.7
			c2.3,2.4,9.3,9.8,9.7,21c0.2,3.8-0.5,7.6-1.8,11.3C244.1,128.2,243.7,128.5,243.3,128.5z"/>
	</g>
	<g>
		<path class="st6" d="M252,207.5c-0.1,0-0.2,0-0.3,0c-0.6-0.2-0.9-0.8-0.7-1.3c1.6-5.4,2.3-11,2.1-16.4c-0.2-5.1-1.5-10.1-4.2-20
			c-0.9-3.4-1.7-6-2.3-8.3c-1.1-3.9-2.1-7.3-3.3-12.7c-0.7-3.2-1.3-6.4-1.8-9.5c-0.1-0.6,0.3-1.1,0.9-1.2c0.6-0.1,1.1,0.3,1.2,0.9
			c0.5,3.1,1.1,6.3,1.7,9.4c1.1,5.4,2.1,8.5,3.2,12.6c0.7,2.3,1.4,4.9,2.3,8.4c2.7,10.1,4,15.2,4.2,20.5c0.2,5.7-0.5,11.5-2.1,17.1
			C252.9,207.2,252.5,207.5,252,207.5z"/>
	</g>
	<g>
		<path class="st3" d="M139.7,286.1c-0.9,0-1.8-0.2-2.6-0.8c-1.6-1-2.2-2.7-2.4-4c-1.5,0.8-3.1,1.4-4.8,1.7c-3.8,0.7-5.8,0.4-6.4-1
			c-0.6-1.2,0.4-2.2,1.4-3.3c0.9-1,2-2.2,2.8-3.9c0.9-1.9,0.9-3.4,0.9-5.2c0-0.3,0-0.7,0-1c0.1-3.6,0.8-5.4,2-8.8
			c0.8-2.2,1.9-5.2,3.3-10c1-3.6,2-7.4,2.8-11.1c0.1-0.6,0.7-1,1.3-0.8c0.6,0.1,0.9,0.7,0.8,1.3c-0.8,3.8-1.8,7.6-2.8,11.3
			c-1.4,4.8-2.5,7.9-3.3,10.1c-1.2,3.3-1.8,4.9-1.9,8.2c0,0.3,0,0.7,0,1c0,1.8-0.1,3.7-1.1,6c-0.9,2.1-2.3,3.5-3.2,4.5
			c-0.3,0.3-0.6,0.6-0.8,0.9c0.4,0.1,1.5,0.2,3.9-0.2c2-0.4,3.8-1.1,5.5-2.3c0.3-0.2,0.8-0.2,1.1-0.1c0.4,0.2,0.6,0.6,0.6,1
			c0,0.1-0.1,2.9,1.6,4c2.1,1.3,5.2-0.9,5.9-1.5c-0.8-1-1.2-2.2-0.9-3.5c0.4-1.5,1.9-2.5,3.1-2.9c0.9-0.3,1.6-0.2,2.1,0.3
			c0.3,0.2,0.6,0.7,0.6,1.5c0,1.1-0.7,2.9-1.9,4.6c0.3,0.2,0.5,0.4,0.8,0.5c1.2,0.6,3.4,1,6.7-0.7c0.8-0.4,1.6-1,2.2-1.6
			c0.2-0.2,0.6-0.3,0.9-0.3c0.3,0,0.6,0.2,0.8,0.5c0.2,0.3,0.9,1.3,2.1,1.6c1.2,0.3,2.6-0.3,3.5-1.4c0.4-0.5,1-0.5,1.5-0.2
			c0.5,0.4,0.5,1,0.2,1.5c-1.4,1.8-3.6,2.6-5.6,2.1c-1.2-0.3-2.1-1-2.7-1.6c-0.6,0.4-1.2,0.8-1.8,1.1c-4.2,2.2-7,1.6-8.7,0.7
			c-0.4-0.2-0.8-0.5-1.3-0.8C145.3,283.8,142.6,286.1,139.7,286.1z M146.9,277.7c-0.5,0.2-1.4,0.7-1.6,1.4c-0.1,0.4,0,0.8,0.3,1.3
			C146.3,279.4,146.8,278.4,146.9,277.7z"/>
	</g>
	<g>
		<path class="st3" d="M162.1,257.5c-0.3,0-0.5-0.1-0.7-0.3c-0.9-0.8-1.7-1.6-2.5-2.5c-2.1-2.4-4-5-5.4-7.9
			c-0.3-0.5-0.1-1.2,0.5-1.4c0.5-0.3,1.2-0.1,1.4,0.5c1.4,2.7,3.1,5.2,5.1,7.5c0.7,0.8,1.5,1.6,2.4,2.4c0.4,0.4,0.5,1.1,0.1,1.5
			C162.7,257.4,162.4,257.5,162.1,257.5z"/>
	</g>
	<g>
		<path class="st3" d="M165.3,279.2c-0.5,0-0.9-0.3-1-0.8c-1.6-5.5-2.3-11.1-2.1-16.8c0.1-4.6,0.9-9.1,2.1-13.6
			c0.2-0.6,0.8-0.9,1.3-0.7c0.6,0.2,0.9,0.8,0.7,1.3c-1.2,4.2-1.9,8.6-2.1,13c-0.2,5.4,0.5,10.9,2.1,16.1c0.2,0.6-0.2,1.2-0.7,1.3
			C165.5,279.2,165.4,279.2,165.3,279.2z"/>
	</g>
	<g>
		<path class="st3" d="M252.7,247.7c-0.2,0-0.4,0-0.5-0.1c-0.5-0.3-0.7-0.9-0.4-1.5l6.3-11.2c0.3-0.5,0.9-0.7,1.5-0.4
			c0.5,0.3,0.7,0.9,0.4,1.5l-6.3,11.2C253.5,247.5,253.1,247.7,252.7,247.7z"/>
	</g>
	<g>
		<path class="st3" d="M254.8,307.9c-0.5,0-0.9-0.3-1-0.8c-1.8-5.7-2.6-11.6-2.5-17.5c0.1-3.4,0.4-5.3,0.8-7.3
			c0.4-1.9,0.7-3.8,0.9-7.1c0.6-9.3-0.7-16.5-1.7-21.8c-1.1-5.9-2.7-11.7-4.8-17.3c-0.2-0.6,0.1-1.2,0.6-1.4
			c0.6-0.2,1.2,0.1,1.4,0.6c2.2,5.7,3.8,11.7,4.9,17.7c1,5.4,2.4,12.7,1.8,22.3c-0.2,3.5-0.6,5.5-1,7.4c-0.4,2-0.7,3.7-0.8,6.9
			c-0.1,5.6,0.7,11.3,2.4,16.8c0.2,0.6-0.1,1.2-0.7,1.3C255,307.9,254.9,307.9,254.8,307.9z"/>
	</g>
	<g>
		<path class="st3" d="M286.1,265.5c-0.8,0-1.7-0.1-2.8-0.3c-0.6-0.1-1-0.7-0.9-1.2c0.1-0.6,0.7-1,1.2-0.9c2,0.3,2.9,0.3,3.3,0.2
			c-0.1-0.2-0.3-0.5-0.5-0.8c-0.5-0.8-1.3-1.8-1.8-3.2c-0.9-2.3-0.8-4.3-0.8-5.6l0-0.4c0.1-3.7-1-8.7-3.1-15
			c-0.2-0.6,0.1-1.2,0.7-1.4c0.6-0.2,1.2,0.1,1.4,0.7c2.2,6.5,3.3,11.8,3.2,15.8l0,0.5c0,1.3-0.1,2.9,0.6,4.7
			c0.5,1.2,1.1,2.1,1.6,2.8c0.7,1,1.4,1.9,0.8,3C288.6,265.1,287.7,265.5,286.1,265.5z M287,263.5L287,263.5L287,263.5z"/>
	</g>
	<g>
		<path class="st3" d="M262.9,217.7c-0.2,0-0.5-0.1-0.6-0.2c-3-2.3-6.1-4.3-9.3-6.2c-6-3.5-12.4-6.3-19-8.3
			c-0.6-0.2-0.9-0.8-0.7-1.3c0.2-0.6,0.8-0.9,1.3-0.7c6.8,2.1,13.3,4.9,19.5,8.5c3.3,1.9,6.5,4.1,9.6,6.4c0.5,0.4,0.6,1,0.2,1.5
			C263.5,217.5,263.2,217.7,262.9,217.7z"/>
	</g>
	<g>
		<path class="st6" d="M109.8,124.9c-6,0-10.4-2.5-10.6-2.7c-0.5-0.3-0.7-1-0.4-1.5c0.3-0.5,1-0.7,1.5-0.4c0.1,0.1,9.1,5.2,18.9,0
			c0.5-0.3,1.2-0.1,1.5,0.4c0.3,0.5,0.1,1.2-0.4,1.5C116.5,124.2,112.9,124.9,109.8,124.9z"/>
	</g>
</g>
</svg>
