<?xml version="1.0" encoding="UTF-8"?>
<svg id="katman_1" data-name="katman 1" xmlns="http://www.w3.org/2000/svg" viewBox="0 0 512 512">
  <defs>
    <style>
      .cls-1 {
        fill: #1a1a1a;
      }
    </style>
  </defs>
  <path class="cls-1" d="M300.4,256c0,24.52-19.88,44.4-44.4,44.4s-44.4-19.88-44.4-44.4,19.88-44.4,44.4-44.4,44.4,19.88,44.4,44.4Z"/>
  <path class="cls-1" d="M359.84,177.44c-2.13-5.78-5.54-11.02-9.96-15.32-4.3-4.42-9.53-7.83-15.32-9.96-4.69-1.82-11.74-3.99-24.73-4.58-14.05-.64-18.26-.78-53.83-.78s-39.78,.13-53.83,.78c-12.99,.59-20.04,2.76-24.73,4.59-5.79,2.13-11.02,5.54-15.32,9.96-4.42,4.3-7.83,9.53-9.97,15.32-1.82,4.69-3.99,11.75-4.58,24.74-.64,14.05-.78,18.26-.78,53.83s.14,39.78,.78,53.83c.59,12.99,2.76,20.04,4.58,24.73,2.14,5.79,5.54,11.02,9.96,15.32,4.3,4.42,9.53,7.83,15.32,9.96,4.69,1.83,11.75,4,24.74,4.59,14.05,.64,18.25,.78,53.83,.78s39.79-.13,53.83-.78c12.99-.59,20.04-2.76,24.74-4.59,11.62-4.48,20.8-13.66,25.28-25.28,1.82-4.69,3.99-11.74,4.59-24.73,.64-14.05,.78-18.26,.78-53.83s-.13-39.78-.78-53.83c-.59-12.99-2.76-20.04-4.59-24.74Zm-103.84,146.96c-37.78,0-68.41-30.62-68.41-68.4s30.63-68.4,68.41-68.4,68.4,30.62,68.4,68.4-30.63,68.4-68.4,68.4Zm71.11-123.52c-8.83,0-15.99-7.16-15.99-15.99s7.16-15.99,15.99-15.99,15.99,7.16,15.99,15.99c0,8.83-7.16,15.99-15.99,15.99Z"/>
  <path class="cls-1" d="M256,24.02C127.9,24.02,24.02,127.9,24.02,256s103.88,231.98,231.98,231.98,231.98-103.88,231.98-231.98S384.1,24.02,256,24.02Zm132.4,286.9c-.64,14.18-2.9,23.86-6.19,32.34-6.92,17.89-21.06,32.04-38.96,38.96-8.47,3.29-18.16,5.54-32.33,6.19-14.2,.65-18.74,.8-54.92,.8s-40.71-.16-54.92-.8c-14.18-.65-23.86-2.9-32.33-6.19-8.89-3.35-16.94-8.59-23.6-15.37-6.78-6.65-12.02-14.7-15.36-23.59-3.29-8.47-5.55-18.16-6.19-32.33-.65-14.21-.81-18.75-.81-54.92s.15-40.71,.8-54.92c.64-14.18,2.9-23.86,6.19-32.34,3.35-8.89,8.59-16.94,15.37-23.59,6.65-6.78,14.7-12.02,23.59-15.37,8.47-3.29,18.16-5.54,32.34-6.19,14.2-.65,18.74-.8,54.92-.8s40.71,.16,54.92,.81c14.18,.64,23.86,2.9,32.34,6.18,8.89,3.35,16.94,8.59,23.6,15.37,6.78,6.65,12.02,14.7,15.36,23.59,3.3,8.47,5.55,18.16,6.19,32.34,.65,14.2,.8,18.74,.8,54.92s-.15,40.71-.8,54.92Z"/>
</svg>