<?xml version="1.0" encoding="UTF-8"?>
<svg id="katman_1" data-name="katman 1" xmlns="http://www.w3.org/2000/svg" viewBox="0 0 512 512">
  <defs>
    <style>
      .cls-1 {
        fill: #1a1a1a;
        fill-rule: evenodd;
      }
    </style>
  </defs>
  <g id="Layer_1">
    <path class="cls-1" d="M256,24.02c128.12,0,231.98,103.86,231.98,231.98s-103.86,231.98-231.98,231.98S24.02,384.12,24.02,256,127.88,24.02,256,24.02Zm-103.34,339.64h44.43V220.12h-44.43v143.55Zm22-162.34c14.52,0,26.28-11.87,26.28-26.5s-11.76-26.49-26.28-26.49-26.27,11.86-26.27,26.49,11.75,26.5,26.27,26.5Zm93.45,86.99c0-20.18,9.3-32.21,27.09-32.21,16.33,0,24.19,11.54,24.19,32.21v75.35h44.22v-90.89c0-38.45-21.79-57.04-52.23-57.04s-43.26,23.72-43.26,23.72v-19.34h-42.62v143.55h42.62v-75.35h0Z"/>
  </g>
</svg>