<?xml version="1.0" encoding="UTF-8"?>
<svg id="katman_1" data-name="katman 1" xmlns="http://www.w3.org/2000/svg" viewBox="0 0 512 512">
  <defs>
    <style>
      .cls-1 {
        fill: #fff;
        fill-rule: evenodd;
      }
    </style>
  </defs>
  <g id="Artboard">
    <path class="cls-1" d="M256,24.02C127.89,24.02,24.02,127.89,24.02,256s103.87,231.98,231.98,231.98,231.98-103.87,231.98-231.98S384.11,24.02,256,24.02Zm107.53,157.76c-3.49,36.68-18.59,125.69-26.28,166.78-3.25,17.39-9.66,23.22-15.86,23.79-13.47,1.24-23.7-8.91-36.75-17.46-20.42-13.38-31.95-21.71-51.77-34.77-22.91-15.1-8.06-23.39,4.99-36.94,3.42-3.55,62.77-57.54,63.92-62.44,.14-.62,.28-2.9-1.08-4.1s-3.36-.79-4.8-.46c-2.05,.46-34.67,22.02-97.85,64.67-9.26,6.36-17.64,9.45-25.16,9.3-8.28-.18-24.21-4.68-36.06-8.54-14.53-4.72-26.07-7.22-25.06-15.24,.52-4.18,6.27-8.45,17.25-12.81,67.63-29.47,112.72-48.89,135.28-58.28,64.43-26.79,77.81-31.45,86.54-31.61,10.93-.19,13.57,8.83,12.68,18.11Z"/>
  </g>
</svg>