<?xml version="1.0" encoding="UTF-8"?>
<svg id="katman_1" data-name="katman 1" xmlns="http://www.w3.org/2000/svg" viewBox="0 0 512 512">
  <defs>
    <style>
      .cls-1 {
        fill: #fff;
      }
    </style>
  </defs>
  <path class="cls-1" d="M256,24.02C127.9,24.02,24.02,127.9,24.02,256s103.88,231.98,231.98,231.98,231.98-103.88,231.98-231.98S384.1,24.02,256,24.02Zm105.92,180.87c.1,2.28,.15,4.58,.15,6.88,0,70.36-53.56,151.49-151.5,151.5h0c-30.07,0-58.05-8.81-81.62-23.92,4.17,.49,8.41,.74,12.7,.74,24.95,0,47.91-8.51,66.13-22.79-23.31-.43-42.96-15.83-49.74-36.98,3.25,.62,6.58,.96,10.01,.96,4.86,0,9.57-.65,14.04-1.88-24.36-4.88-42.72-26.41-42.72-52.19,0-.24,0-.46,0-.68,7.18,3.99,15.38,6.39,24.12,6.66-14.3-9.54-23.69-25.85-23.69-44.32,0-9.76,2.64-18.9,7.21-26.76,26.26,32.22,65.5,53.41,109.75,55.63-.91-3.9-1.38-7.96-1.38-12.14,0-29.39,23.85-53.24,53.25-53.24,15.32,0,29.15,6.47,38.87,16.82,12.13-2.39,23.52-6.82,33.81-12.92-3.98,12.43-12.42,22.86-23.42,29.45,10.77-1.29,21.04-4.15,30.58-8.39-7.13,10.68-16.16,20.06-26.56,27.57Z"/>
</svg>