<?xml version="1.0" encoding="UTF-8"?>
<svg id="katman_1" data-name="katman 1" xmlns="http://www.w3.org/2000/svg" viewBox="0 0 512 512">
  <defs>
    <style>
      .cls-1 {
        fill: #1a1a1a;
      }
    </style>
  </defs>
  <g id="Layer_2" data-name="Layer 2">
    <g id="_08.whatsapp" data-name=" 08.whatsapp">
      <path class="cls-1" d="M320.1,191.9l-.46-.46c-35.27-35.08-92.3-34.93-127.39,.34-27.38,27.52-34.04,69.49-16.53,104.14l3.97,7.81-7.42,35.96v.46l35.62-8.46,8.12,4.03c34.65,17.2,76.41,10.37,103.78-16.97,34.88-35.05,35.01-91.64,.31-126.86h0Zm-3.6,100.73c-4.36,6.87-11.29,15.26-19.93,17.37-15.26,3.69-38.49,0-67.58-26.89l-.37-.34c-25.3-23.63-32.02-43.31-30.52-58.91,.89-8.85,8.27-16.85,14.5-22.1,3.48-2.96,8.7-2.54,11.66,.93,.54,.64,.98,1.35,1.31,2.12l9.37,21.37c1.25,2.78,.86,6.02-1.01,8.42l-4.76,6.1c-2.02,2.59-2.28,6.15-.64,9,4.53,6.66,9.94,12.66,16.09,17.86,6.6,6.39,14.11,11.77,22.28,15.96,3.05,1.24,6.54,.5,8.82-1.86l5.46-5.52c2.08-2.38,5.34-3.38,8.39-2.56l22.28,6.41c4.42,1.29,6.95,5.92,5.66,10.34-.22,.75-.54,1.46-.96,2.12l-.06,.18Z"/>
      <path class="cls-1" d="M256,24.02C127.88,24.02,24.02,127.88,24.02,256s103.86,231.98,231.98,231.98,231.98-103.86,231.98-231.98S384.12,24.02,256,24.02Zm114.98,234.7c-2.07,63.54-55.25,113.37-118.79,111.3-16.49-.54-32.67-4.61-47.45-11.95l-57.99,13.8c-1.79,.41-3.66-.31-4.7-1.83-.7-1-.96-2.25-.7-3.45l12.21-59.28c-28.89-56.61-6.42-125.92,50.19-154.81,56.61-28.89,125.92-6.42,154.81,50.19,8.84,17.32,13.14,36.59,12.52,56.03h-.09Z"/>
    </g>
  </g>
</svg>